<?xml version="1.0" standalone="no"?><!DOCTYPE svg PUBLIC "-//W3C//DTD SVG 1.1//EN" "http://www.w3.org/Graphics/SVG/1.1/DTD/svg11.dtd"><svg t="1556240651479" class="icon" style="" viewBox="0 0 1024 1024" version="1.1" xmlns="http://www.w3.org/2000/svg" p-id="4154" xmlns:xlink="http://www.w3.org/1999/xlink" width="200" height="200"><defs><style type="text/css"></style></defs><path d="M511.489277 721.958236c-104.596076 0-189.580387-84.984312-189.580387-189.580387 0-45.760783 19.611764-98.058821 52.34911-130.745095q19.611764-19.611764 39.223528 0t0 39.223528c-26.149019 19.611764-39.223528 52.34911-39.223528 91.521567 0 71.909802 58.835293 137.28235 137.282349 137.282349S648.771626 610.824906 648.771626 532.428921c0-32.686274-13.074509-65.372547-39.223528-91.521566q-19.611764-19.611764 0-39.223529t39.223528 0c32.686274 32.686274 52.34911 84.984312 52.349111 130.745095 0 104.596076-84.984312 189.580387-189.580388 189.580387z m0 0" fill="#8A8A8A" p-id="4155"></path><path d="M511.489277 545.452358c-19.611764 0-32.686274-13.074509-32.686274-32.686273V336.260207c0-19.611764 13.074509-32.686274 32.686274-32.686274s32.686274 13.074509 32.686274 32.686274V512.766085c0 19.611764-13.074509 32.686274-32.686274 32.686273z m0 0" fill="#8A8A8A" p-id="4156"></path><path d="M512 1023.999834A511.591256 511.591256 0 0 1 0.000166 512 511.591256 511.591256 0 0 1 512 0.000166a511.591256 511.591256 0 0 1 511.999834 511.999834 511.591256 511.591256 0 0 1-511.999834 511.999834z m0-972.927365C257.838686 51.072469 51.072469 257.838686 51.072469 512s206.766217 460.927531 460.927531 460.927531 460.927531-206.766217 460.927531-460.927531S766.161314 51.072469 512 51.072469z" fill="#8A8A8A" p-id="4157"></path></svg>